<?xml version="1.0" standalone="no"?>
<!DOCTYPE svg PUBLIC "-//W3C//DTD SVG 20010904//EN"
 "http://www.w3.org/TR/2001/REC-SVG-20010904/DTD/svg10.dtd">
<svg version="1.0" xmlns="http://www.w3.org/2000/svg"
 width="700.000000pt" height="700.000000pt" viewBox="0 0 700.000000 700.000000"
 preserveAspectRatio="xMidYMid meet">
<metadata>
Created by potrace 1.14, written by Peter Selinger 2001-2017
</metadata>
<g transform="translate(0.000000,700.000000) scale(0.100000,-0.100000)"
fill="#000000" stroke="none">
<path d="M940 5355 c-112 -112 -201 -208 -197 -212 4 -4 375 -376 825 -826
l817 -817 -825 -825 -825 -825 206 -206 205 -205 1031 1030 1031 1031 -1030
1030 c-567 566 -1031 1030 -1032 1030 -1 0 -93 -92 -206 -205z"/>
<path d="M3210 1167 l0 -293 1453 2 c798 1 1454 2 1457 3 3 0 5 130 5 289 l0
287 -1457 2 -1458 2 0 -292z"/>
</g>
</svg>
